<svg width="130" height="36" viewBox="0 0 130 36" fill="none" xmlns="http://www.w3.org/2000/svg">
<path d="M76.6958 34.1204C78.3258 29.4604 79.8858 24.9604 81.4558 20.4804C82.3858 17.8304 83.3358 15.1804 84.2458 12.5304C84.4558 11.9304 84.6058 11.4604 85.4358 11.4704C88.1558 11.5204 90.8758 11.4904 93.5958 11.4904C93.7058 12.1404 93.4258 12.6204 93.2558 13.2304C93.8858 13.3204 94.2558 12.8404 94.6858 12.6004C97.2358 11.1504 99.8958 10.1604 102.896 10.7204C104.496 11.0204 105.866 11.8004 106.706 13.2104C107.176 14.0004 107.516 13.9504 108.206 13.5204C110.836 11.8504 113.616 10.6804 116.856 10.8204C121.406 11.0204 124.196 14.9504 122.696 19.2104C121.096 23.7504 119.456 28.2804 117.886 32.8304C117.566 33.7704 117.176 34.1804 116.096 34.1404C113.326 34.0504 110.556 34.1104 107.596 34.1104C108.896 30.3404 110.146 26.7004 111.406 23.0704C111.636 22.4104 111.886 21.7504 112.096 21.0804C112.336 20.2804 112.416 19.4704 111.756 18.8204C111.076 18.1404 110.226 18.1504 109.366 18.4004C107.936 18.8204 107.106 19.8204 106.626 21.1804C105.256 25.0604 103.816 28.9204 102.516 32.8204C102.156 33.9004 101.616 34.1704 100.566 34.1404C98.1958 34.0704 95.8158 34.0504 93.4458 34.1404C92.1558 34.1904 91.7958 34.0004 92.3058 32.6404C93.7558 28.8404 95.0558 24.9904 96.4258 21.1704C96.7958 20.1304 97.1058 19.0904 96.0258 18.3104C94.9558 17.5304 93.9058 17.9404 92.9258 18.5504C91.9458 19.1704 91.4358 20.1304 91.0558 21.2104C89.6858 25.0904 88.2258 28.9404 86.9158 32.8304C86.5558 33.9004 86.0358 34.1604 84.9858 34.1304C82.2858 34.0804 79.5758 34.1204 76.6958 34.1204Z" fill="#F5F5F5"/>
<path d="M31.5358 10.54C30.1958 10.85 28.9557 11.39 27.7257 11.97C27.3857 12.13 27.0958 12.51 26.6758 12.32C27.7658 9.21004 28.8258 6.10005 29.9358 3.02005C30.2958 2.02005 29.6558 2.18004 29.1158 2.18004C26.5458 2.18004 23.9658 2.21004 21.3958 2.17004C20.6158 2.15004 20.2458 2.40005 19.9958 3.16005C19.1458 5.73005 18.2058 8.27005 17.3058 10.83C14.6958 18.2 12.1058 25.59 9.46576 32.95C9.15576 33.84 9.15575 34.2 10.2658 34.14C12.0258 34.06 13.7958 34.08 15.5658 34.14C17.2658 34.19 18.9658 34.37 19.2058 31.79C20.3858 33.73 22.0358 34.41 23.8758 34.73C26.4958 35.18 29.0457 34.85 31.3557 33.57C37.2057 30.35 40.4858 25.23 41.2058 18.74C41.8858 12.7 37.4658 9.17004 31.5358 10.54ZM25.7558 27.36C23.8558 27.75 22.3458 26.61 22.2058 24.67C21.9958 21.86 24.9157 17.94 27.6957 17.31C29.7657 16.84 31.3758 18.25 31.3758 20.53C31.3658 23.6 28.7758 26.75 25.7558 27.36Z" fill="#F5F5F5"/>
<path d="M82.6457 11.4901C81.4657 14.8201 80.3457 17.9701 79.2257 21.1301C77.8157 25.1001 76.3857 29.0701 75.0057 33.0501C74.7457 33.8101 74.4457 34.1801 73.5457 34.1501C71.0257 34.0801 68.5057 34.1201 65.9057 34.1201C66.0057 33.4901 66.0957 32.9701 66.2057 32.3001C65.0257 32.9001 63.9957 33.4801 62.9157 33.9601C61.4357 34.6201 59.8857 35.0301 58.2357 35.0301C53.3457 35.0401 50.8257 31.9201 52.1957 27.2101C53.2057 23.7501 54.5557 20.3801 55.7557 16.9801C56.2857 15.4701 56.8657 13.9701 57.3657 12.4401C57.5757 11.7901 57.8357 11.4501 58.6157 11.4701C61.0357 11.5201 63.4657 11.5201 65.8857 11.4701C66.7857 11.4501 66.8857 11.7101 66.5857 12.5101C65.2557 16.0801 63.9757 19.6801 62.6857 23.2701C62.5157 23.7401 62.3157 24.2101 62.2257 24.7001C61.8557 26.8301 63.0557 27.8701 65.1457 27.2501C66.8457 26.7401 68.0257 25.7001 68.6357 23.9901C70.0157 20.1701 71.4557 16.3701 72.8357 12.5401C73.1057 11.7801 73.4357 11.4401 74.3157 11.4601C77.0357 11.5301 79.7457 11.4901 82.6457 11.4901Z" fill="#F5F5F5"/>
<path d="M37.7858 34.1201C39.2958 29.8901 40.7358 25.8301 42.1758 21.7801C44.3258 15.7301 46.4858 9.69011 48.5858 3.63011C48.9358 2.63011 49.3758 2.20009 50.4958 2.24009C52.9658 2.34009 55.4357 2.3001 57.9157 2.2501C58.8157 2.2301 58.8958 2.4901 58.6158 3.2801C55.0258 13.2901 51.4758 23.3101 47.9058 33.3201C47.7558 33.7401 47.6258 34.1301 47.0058 34.1301C43.9958 34.1001 40.9858 34.1201 37.7858 34.1201Z" fill="#F5F5F5"/>
<path d="M10.5157 22.0403C10.1357 18.6603 9.78574 15.4203 9.38574 12.1903C9.32574 11.6703 8.93574 11.0903 8.36574 11.6403C6.00574 13.9403 3.71574 16.3103 1.39574 18.6503C1.44574 18.7803 1.50574 18.9003 1.55574 19.0303C2.18574 19.0303 2.80575 19.0303 3.43575 19.0303C5.40575 19.0403 5.87573 19.6503 5.23573 21.5403C4.02573 25.1003 2.76573 28.6503 1.51573 32.2003C1.36573 32.6303 1.18575 33.0503 1.07575 33.4803C0.955746 33.9403 0.695735 34.2703 0.235735 34.0603C-0.254265 33.8403 0.155739 33.4503 0.255739 33.1803C1.54574 29.4303 2.85574 25.6903 4.16574 21.9503C4.81574 20.0903 4.69574 19.9303 2.69574 19.9303C2.44574 19.9303 2.19575 19.9303 1.93575 19.9303C1.37575 19.9403 0.765739 19.9803 0.505739 19.3503C0.255739 18.7203 0.53574 18.1603 0.97574 17.7103C1.96574 16.7003 2.96575 15.7103 3.96575 14.7203C5.24575 13.4403 6.50574 12.1303 7.83574 10.8903C8.89574 9.90034 10.0457 10.2303 10.2457 11.6603C10.7057 14.9903 11.0257 18.3403 11.3857 21.6903C11.4457 22.2003 11.3957 22.7103 10.8157 22.9603C10.2957 23.1803 9.86573 23.0103 9.40573 22.7303C8.63573 22.2703 8.11573 20.9503 7.12573 21.4303C6.40573 21.7803 6.38574 23.0003 6.08574 23.8403C4.97574 26.9603 3.90574 30.0903 2.78574 33.2103C2.65574 33.5803 2.63573 34.2803 1.98573 34.0803C1.21573 33.8403 1.85575 33.3103 1.96575 33.0003C3.23575 29.2403 4.53575 25.5003 5.85575 21.7603C6.54575 19.8203 7.19574 19.6603 8.77574 20.9403C9.21574 21.3103 9.57573 21.8303 10.5157 22.0403Z" fill="#F5F5F5"/>
<path d="M129.026 3.32004C129.026 5.20004 127.546 6.68004 125.616 6.68004C123.706 6.68004 122.186 5.20004 122.186 3.32004C122.186 1.48004 123.706 5.03782e-05 125.616 5.03782e-05C127.546 -0.00994962 129.026 1.47004 129.026 3.32004ZM123.046 3.32004C123.046 4.80004 124.136 5.98005 125.636 5.98005C127.096 5.98005 128.166 4.80004 128.166 3.35004C128.166 1.87004 127.096 0.670049 125.616 0.670049C124.136 0.670049 123.046 1.86004 123.046 3.32004ZM125.086 5.06005H124.316V1.74004C124.616 1.68004 125.046 1.64005 125.596 1.64005C126.226 1.64005 126.506 1.74006 126.756 1.88006C126.936 2.02006 127.076 2.29005 127.076 2.61005C127.076 2.97005 126.796 3.26006 126.386 3.38006V3.42005C126.706 3.54005 126.896 3.78005 126.996 4.23005C127.096 4.74005 127.156 4.94005 127.236 5.06005H126.406C126.306 4.94005 126.246 4.63005 126.146 4.25005C126.086 3.89005 125.886 3.72005 125.456 3.72005H125.096V5.06005H125.086ZM125.106 3.18004H125.466C125.896 3.18004 126.236 3.04005 126.236 2.69005C126.236 2.39005 126.016 2.18004 125.526 2.18004C125.326 2.18004 125.186 2.20005 125.096 2.22005V3.18004H125.106Z" fill="#F5F5F5"/>
</svg>
