<!-- <svg width="75" height="75" viewBox="0 0 75 75" fill="none" xmlns="http://www.w3.org/2000/svg">
<mask id="mask0_804_91" style="mask-type:alpha" maskUnits="userSpaceOnUse" x="0" y="0" width="75" height="75">
<rect width="75" height="75" fill="#D9D9D9"/>
</mask>
<g mask="url(#mask0_804_91)">
<path d="M10.0072 22.414C10.0072 19.3438 10.0001 16.2736 10.0072 13.1963C10.0072 11.313 11.3149 10.0124 13.1912 10.0053C19.3315 9.99822 25.479 9.99822 31.6194 10.0053C33.4459 10.0053 34.8105 11.313 34.8105 13.1324C34.8318 19.3012 34.8318 25.4629 34.8105 31.6317C34.8034 33.4369 33.4459 34.8014 31.6408 34.8085C25.4719 34.8228 19.3102 34.8228 13.1414 34.8085C11.322 34.8014 10.0144 33.4369 10.0072 31.6175C10.0072 28.5615 10.0072 25.4913 10.0072 22.414Z" fill="#1C1C1C"/>
<path d="M65.7681 22.4069C65.7681 25.4558 65.7681 28.5047 65.7681 31.5465C65.7681 33.4938 64.4533 34.8157 62.4989 34.8228C56.4296 34.8299 50.3603 34.8299 44.291 34.8228C42.3081 34.8228 40.9649 33.4796 40.9649 31.5038C40.9578 25.4345 40.9578 19.3652 40.9649 13.2959C40.9649 11.3059 42.2939 10.0125 44.2981 10.0125C50.3674 10.0125 56.4367 10.0125 62.5061 10.0125C64.4818 10.0125 65.7681 11.2917 65.7681 13.2674C65.7681 16.3163 65.7681 19.3581 65.7681 22.4069Z" fill="#1C1C1C"/>
<path d="M10.0071 53.3789C10.0071 50.33 10.0071 47.2811 10.0071 44.2394C10.0071 42.2921 11.3219 40.9702 13.2763 40.9702C19.3456 40.9631 25.415 40.9631 31.4843 40.9702C33.46 40.9702 34.8103 42.3134 34.8103 44.2891C34.8174 50.3584 34.8174 56.4278 34.8103 62.4971C34.8103 64.4586 33.4884 65.7805 31.5482 65.7805C25.4292 65.7805 19.3101 65.7876 13.191 65.7805C11.3148 65.7805 10.0071 64.4728 10 62.5966C10.0071 59.5193 10.0071 56.4491 10.0071 53.3789Z" fill="#1C1C1C"/>
<path d="M59.5567 56.4847C58.6897 56.4847 57.8155 56.506 56.9485 56.4776C56.5647 56.4634 56.4652 56.5842 56.4652 56.9608C56.4865 58.6807 56.4581 60.3935 56.4865 62.1134C56.4936 62.5611 56.4083 62.7388 55.9037 62.7317C54.2123 62.6961 52.5208 62.6961 50.8294 62.7317C50.3248 62.7388 50.2395 62.554 50.2395 62.1063C50.2608 60.4361 50.2253 58.766 50.2608 57.103C50.275 56.5771 50.1116 56.4705 49.6141 56.4847C47.944 56.5131 46.2738 56.4776 44.6108 56.506C44.1631 56.5131 44.0423 56.3923 44.0494 55.9446C44.0778 54.2531 44.0778 52.5617 44.0494 50.8702C44.0423 50.394 44.1702 50.2519 44.6535 50.259C46.3236 50.2874 47.9937 50.2519 49.6567 50.2803C50.1329 50.2874 50.2608 50.1524 50.2537 49.6833C50.2253 48.0132 50.2608 46.3431 50.2324 44.6801C50.2253 44.1897 50.3817 44.0689 50.8507 44.076C52.5422 44.1044 54.2336 44.1044 55.925 44.076C56.3799 44.0689 56.4865 44.1968 56.4794 44.6374C56.451 46.3289 56.4865 48.0203 56.4581 49.7118C56.451 50.1453 56.5433 50.2874 57.0053 50.2803C58.6967 50.2519 60.3882 50.2803 62.0797 50.259C62.5345 50.2519 62.7122 50.3514 62.698 50.8489C62.6695 52.5403 62.6624 54.2318 62.698 55.9232C62.7122 56.4349 62.5203 56.5202 62.0797 56.4989C61.2481 56.4563 60.4024 56.4847 59.5567 56.4847Z" fill="#E84538"/>
</g>
</svg> -->



<svg width="56" height="56" viewBox="0 0 56 56" fill="none" xmlns="http://www.w3.org/2000/svg">
<path d="M0.00724799 12.414C0.00724799 9.34384 0.000141057 6.27365 0.00724799 3.19634C0.00724799 1.31301 1.31492 0.0124371 3.19115 0.0053302C9.33155 -0.00177673 15.479 -0.00177673 21.6194 0.0053302C23.4459 0.0053302 24.8105 1.31301 24.8105 3.13238C24.8318 9.30121 24.8318 15.4629 24.8105 21.6317C24.8034 23.4369 23.4459 24.8014 21.6408 24.8085C15.4719 24.8228 9.31022 24.8228 3.1414 24.8085C1.32202 24.8014 0.0143549 23.4369 0.00724799 21.6175C0.00724799 18.5615 0.00724799 15.4913 0.00724799 12.414Z" fill="#989898"/>
<path d="M55.7681 12.4071C55.7681 15.4559 55.7681 18.5048 55.7681 21.5466C55.7681 23.4939 54.4533 24.8158 52.4989 24.8229C46.4296 24.83 40.3603 24.83 34.291 24.8229C32.3081 24.8229 30.9649 23.4797 30.9649 21.504C30.9578 15.4346 30.9578 9.3653 30.9649 3.29597C30.9649 1.30603 32.2939 0.0125732 34.2981 0.0125732C40.3674 0.0125732 46.4367 0.0125732 52.5061 0.0125732C54.4818 0.0125732 55.7681 1.29182 55.7681 3.26755C55.7681 6.31642 55.7681 9.35819 55.7681 12.4071Z" fill="#989898"/>
<path d="M0.00710303 43.379C0.00710303 40.3301 0.00710303 37.2813 0.00710303 34.2395C0.00710303 32.2922 1.32188 30.9703 3.27629 30.9703C9.34561 30.9632 15.415 30.9632 21.4843 30.9703C23.46 30.9703 24.8103 32.3135 24.8103 34.2892C24.8174 40.3586 24.8174 46.4279 24.8103 52.4972C24.8103 54.4587 23.4884 55.7806 21.5482 55.7806C15.4292 55.7806 9.31008 55.7877 3.19101 55.7806C1.31478 55.7806 0.00710694 54.4729 0 52.5967C0.00710694 49.5194 0.00710303 46.4492 0.00710303 43.379Z" fill="#989898"/>
<path d="M49.5567 46.4847C48.6897 46.4847 47.8155 46.506 46.9485 46.4776C46.5647 46.4634 46.4652 46.5842 46.4652 46.9608C46.4865 48.6807 46.4581 50.3935 46.4865 52.1134C46.4936 52.5611 46.4083 52.7388 45.9037 52.7317C44.2123 52.6961 42.5208 52.6961 40.8294 52.7317C40.3248 52.7388 40.2395 52.554 40.2395 52.1063C40.2608 50.4361 40.2253 48.766 40.2608 47.103C40.275 46.5771 40.1116 46.4705 39.6141 46.4847C37.944 46.5131 36.2738 46.4776 34.6108 46.506C34.1631 46.5131 34.0423 46.3923 34.0494 45.9446C34.0778 44.2531 34.0778 42.5617 34.0494 40.8702C34.0423 40.394 34.1702 40.2519 34.6535 40.259C36.3236 40.2874 37.9937 40.2519 39.6567 40.2803C40.1329 40.2874 40.2608 40.1524 40.2537 39.6833C40.2253 38.0132 40.2608 36.3431 40.2324 34.6801C40.2253 34.1897 40.3817 34.0689 40.8507 34.076C42.5422 34.1044 44.2336 34.1044 45.925 34.076C46.3799 34.0689 46.4865 34.1968 46.4794 34.6374C46.451 36.3289 46.4865 38.0203 46.4581 39.7118C46.451 40.1453 46.5433 40.2874 47.0053 40.2803C48.6967 40.2519 50.3882 40.2803 52.0797 40.259C52.5345 40.2519 52.7122 40.3514 52.698 40.8489C52.6695 42.5403 52.6624 44.2318 52.698 45.9232C52.7122 46.4349 52.5203 46.5202 52.0797 46.4989C51.2481 46.4563 50.4024 46.4847 49.5567 46.4847Z" fill="#E84538"/>
</svg>