<!-- <svg width="75" height="75" viewBox="0 0 75 75" fill="none" xmlns="http://www.w3.org/2000/svg">
<mask id="mask0_804_103" style="mask-type:alpha" maskUnits="userSpaceOnUse" x="0" y="0" width="75" height="75">
<rect width="75" height="75" fill="#D9D9D9"/>
</mask>
<g mask="url(#mask0_804_103)">
<path d="M70.0069 32.3525C69.9642 32.3028 69.9429 32.2459 69.9429 32.182C69.9997 29.9646 69.4454 27.8538 68.6992 25.7928C66.8087 20.5479 63.5538 16.298 59.183 12.8724C57.1575 11.2805 54.9544 9.98699 52.6162 8.92805C49.8658 7.67013 46.9875 6.80308 43.9884 6.30559C42.8441 6.12081 41.6857 6.14925 40.5344 6H40.2856C40.2003 6.07818 40.1222 6.07818 40.0369 6H39.4115C39.1201 6.1066 38.8287 6.1066 38.5373 6H37.6632C37.4642 6.13503 37.2368 6.03553 37.0236 6.06396C36.7819 6.03553 36.5261 6.13503 36.2915 6H35.5382C34.8275 6.12792 34.0955 6.07107 33.3848 6.16346C29.9806 6.59698 26.7683 7.66302 23.7123 9.1768C20.2014 10.9251 17.117 13.2562 14.4448 16.1558C11.1046 19.7661 8.71663 23.9024 7.27392 28.593C6.57744 30.8601 6.10838 33.1698 6.05152 35.572C6.00178 37.569 5.94492 39.5661 6.10838 41.556C6.41398 45.3724 7.57951 48.9757 9.29229 52.387C11.0264 55.8552 13.3432 58.904 16.2002 61.5549C19.8745 64.952 24.1031 67.3329 28.8719 68.8111C32.0061 69.7777 35.2184 70.0975 38.4805 69.998C39.0633 69.9767 39.6318 69.8985 40.1861 69.6711C43.3914 68.3563 44.5427 64.3338 42.5314 61.4554C42.2969 61.1143 42.0268 60.7945 41.7923 60.4534C39.6745 57.3547 41.3233 53.2682 44.9904 52.5007C45.7793 52.3372 46.5682 52.4012 47.357 52.387C49.7237 52.3443 52.1116 52.5647 54.464 52.2164C61.2866 51.2001 66.0909 47.4903 68.8626 41.1651C69.5307 39.6371 69.8931 38.0168 70.0069 36.3466V35.6004C69.9287 35.5151 69.9287 35.4298 70.0069 35.3517V33.8521C69.9074 33.5607 69.9074 33.2693 70.0069 32.9779V32.3525ZM18.5029 37.9386C15.454 37.9386 13.2509 35.6573 13.194 32.6439C13.1443 29.7443 15.589 27.3492 18.5029 27.3421C21.4167 27.3421 23.8402 29.7301 23.7975 32.6439C23.762 35.6075 21.5731 37.9386 18.5029 37.9386ZM29.1775 23.7389C26.2708 23.7602 23.8402 21.3936 23.8544 18.4585C23.8757 15.4878 26.086 13.1993 29.1349 13.1283C32.0274 13.0572 34.4295 15.4878 34.4508 18.4087C34.4722 21.3368 32.1056 23.7247 29.1775 23.7389ZM46.9235 23.7318C44.0026 23.7673 41.6288 21.3723 41.6217 18.4371C41.6217 15.5233 44.0026 13.1283 46.9164 13.1212C49.8089 13.114 52.2679 15.5304 52.2253 18.43C52.1827 21.486 49.8658 23.6963 46.9235 23.7318ZM57.5413 37.9457C54.599 37.967 52.2466 35.508 52.2679 32.6084C52.2893 29.6874 54.6914 27.3279 57.6124 27.3492C60.5191 27.3635 62.9639 29.8011 62.8786 32.6794C62.7862 35.771 60.4978 37.9315 57.5413 37.9457Z" fill="#1C1C1C"/>
<circle cx="57.17" cy="32.6458" r="5.68555" fill="#E84538"/>
</g>
</svg> -->

<svg width="64" height="65" viewBox="0 0 64 65" fill="none" xmlns="http://www.w3.org/2000/svg">
<path d="M64.0069 26.3525C63.9642 26.3028 63.9429 26.2459 63.9429 26.182C63.9997 23.9646 63.4454 21.8538 62.6992 19.7928C60.8087 14.5479 57.5538 10.298 53.183 6.87241C51.1575 5.28045 48.9544 3.98699 46.6162 2.92805C43.8658 1.67013 40.9875 0.803079 37.9884 0.305593C36.8441 0.120813 35.6857 0.149246 34.5344 0H34.2856C34.2003 0.0781763 34.1222 0.0781763 34.0369 0H33.4115C33.1201 0.106604 32.8287 0.106604 32.5373 0H31.6632C31.4642 0.135032 31.2368 0.0355321 31.0236 0.0639598C30.7819 0.0355321 30.5261 0.135032 30.2915 0H29.5382C28.8275 0.127925 28.0955 0.0710663 27.3848 0.163457C23.9806 0.59698 20.7683 1.66302 17.7123 3.1768C14.2014 4.92511 11.117 7.25618 8.44482 10.1558C5.10456 13.7661 2.71663 17.9024 1.27392 22.593C0.577439 24.8601 0.10838 27.1698 0.0515247 29.572C0.00177609 31.569 -0.0550781 33.5661 0.108381 35.556C0.41398 39.3724 1.57951 42.9757 3.29229 46.387C5.02638 49.8552 7.34324 52.904 10.2002 55.5549C13.8745 58.952 18.1031 61.3329 22.8719 62.8111C26.0061 63.7777 29.2184 64.0975 32.4805 63.998C33.0633 63.9767 33.6318 63.8985 34.1861 63.6711C37.3914 62.3563 38.5427 58.3338 36.5314 55.4554C36.2969 55.1143 36.0268 54.7945 35.7923 54.4534C33.6745 51.3547 35.3233 47.2682 38.9904 46.5007C39.7793 46.3372 40.5682 46.4012 41.357 46.387C43.7237 46.3443 46.1116 46.5647 48.464 46.2164C55.2866 45.2001 60.0909 41.4903 62.8626 35.1651C63.5307 33.6371 63.8931 32.0168 64.0069 30.3466V29.6004C63.9287 29.5151 63.9287 29.4298 64.0069 29.3517V27.8521C63.9074 27.5607 63.9074 27.2693 64.0069 26.9779V26.3525ZM12.5029 31.9386C9.45399 31.9386 7.25085 29.6573 7.194 26.6439C7.14425 23.7443 9.58903 21.3492 12.5029 21.3421C15.4167 21.3421 17.8402 23.7301 17.7975 26.6439C17.762 29.6075 15.5731 31.9386 12.5029 31.9386ZM23.1775 17.7389C20.2708 17.7602 17.8402 15.3936 17.8544 12.4585C17.8757 9.48776 20.086 7.19933 23.1349 7.12826C26.0274 7.05719 28.4295 9.48777 28.4508 12.4087C28.4722 15.3368 26.1056 17.7247 23.1775 17.7389ZM40.9235 17.7318C38.0026 17.7673 35.6288 15.3723 35.6217 12.4371C35.6217 9.5233 38.0026 7.12826 40.9164 7.12115C43.8089 7.11405 46.2679 9.53041 46.2253 12.43C46.1827 15.486 43.8658 17.6963 40.9235 17.7318ZM51.5413 31.9457C48.599 31.967 46.2466 29.508 46.2679 26.6084C46.2893 23.6874 48.6914 21.3279 51.6124 21.3492C54.5191 21.3635 56.9639 23.8011 56.8786 26.6794C56.7862 29.771 54.4978 31.9315 51.5413 31.9457Z" fill="#989898"/>
<circle cx="51.17" cy="26.6456" r="5.68555" fill="#E84538"/>
</svg>