<!-- <svg width="75" height="75" viewBox="0 0 75 75" fill="none" xmlns="http://www.w3.org/2000/svg">
<mask id="mask0_804_2370" style="mask-type:alpha" maskUnits="userSpaceOnUse" x="0" y="0" width="75" height="75">
<rect width="75" height="75" fill="#D9D9D9"/>
</mask>
<g mask="url(#mask0_804_2370)">
<path d="M57.4824 64.4107C54.4122 64.4107 51.3349 64.4107 48.2647 64.4107C46.957 64.4107 46.5093 64.8443 46.495 66.1306C46.4808 67.2962 46.495 68.4688 46.495 69.6343C46.495 70.011 46.4808 70.3948 46.0828 70.5725C45.6706 70.7573 45.3224 70.6222 44.9955 70.3095C42.0319 67.4667 39.0541 64.6382 36.1047 61.7812C35.2803 60.9781 35.2803 60.0258 36.1047 59.2227C39.2673 56.1525 42.4583 53.1178 45.6422 50.0618C45.9265 49.7918 46.225 49.6212 46.6301 49.7562C47.0991 49.9197 47.1702 50.3177 47.1773 50.7228C47.1915 51.9594 47.1631 53.196 47.1915 54.4326C47.2128 55.5057 47.6464 55.9606 48.7195 55.9677C52.2232 55.989 55.7341 56.0104 59.2378 55.9606C61.4765 55.9322 62.5923 54.1839 61.7323 52.1158C59.2378 46.1388 56.729 40.169 54.1847 34.2134C53.8365 33.3961 53.936 33.2184 54.8457 33.1047C57.5179 32.7636 60.1759 32.2945 62.8339 31.8397C63.3172 31.7544 63.5375 31.8183 63.7222 32.3087C66.7072 40.1264 69.7845 47.9156 72.6841 55.7616C74.269 60.0542 71.0993 64.361 66.5011 64.3965C63.4948 64.4321 60.4886 64.4107 57.4824 64.4107Z" fill="#1C1C1C"/>
<path d="M52.0029 28.3357C49.6647 28.3357 47.3266 28.3428 44.9884 28.3286C44.5904 28.3286 44.0502 28.5489 43.8584 27.9804C43.6807 27.4544 44.1711 27.2199 44.4624 26.9286C45.3508 26.0189 46.2605 25.1376 47.1418 24.2279C47.9164 23.4248 47.9235 22.8563 47.1489 22.0745C44.9884 19.8927 42.8279 17.7109 40.6318 15.5575C39.3455 14.2995 37.988 14.3208 36.659 15.5717C34.6691 17.455 32.6863 19.3383 30.7176 21.243C30.2344 21.7121 29.7156 21.9253 29.0333 21.9324C25.9631 21.9679 22.8929 22.0532 19.8227 22.1314C19.2755 22.1456 18.7211 22.1669 18.444 21.5699C18.1597 20.9445 18.4937 20.511 18.9272 20.0846C22.9711 16.0549 26.9865 11.9969 31.0445 7.98145C35.0386 4.03 40.909 4.00156 44.9315 7.92459C47.8453 10.7674 50.7023 13.6812 53.5807 16.5524C54.5898 17.5616 55.1015 17.5687 56.0894 16.5879C57.0133 15.6711 57.923 14.7402 58.854 13.8305C59.0743 13.6102 59.2662 13.2477 59.6784 13.4183C60.048 13.5746 60.0622 13.9157 60.0622 14.264C60.0551 18.7414 60.048 23.2116 60.0764 27.689C60.0835 28.3428 59.7921 28.3641 59.3017 28.357C56.8783 28.3357 54.4406 28.3428 52.0029 28.3357C52.0029 28.3428 52.0029 28.3428 52.0029 28.3357Z" fill="#1C1C1C"/>
<path d="M4.73466 50.0049C7.8475 46.8921 10.7756 43.9711 13.7036 41.0431C13.9595 40.7872 14.2295 40.5243 14.4143 40.2116C14.727 39.6856 14.592 39.1739 14.1727 38.7617C13.7534 38.3566 13.2488 38.2074 12.7229 38.5556C12.4457 38.7333 12.1969 38.9678 11.9695 39.2024C9.20493 41.9599 6.44032 44.7173 3.68994 47.4891C3.51226 47.6738 3.41277 47.9368 3.14982 48.0718C2.81579 44.8382 3.00056 41.768 4.10925 38.7902C6.96623 31.1147 14.059 26.154 22.4309 26.019C23.696 25.9977 24.9681 26.019 26.2331 26.019C26.5672 26.019 26.9154 25.9693 26.9225 26.4881C27.0149 30.9725 27.022 35.4428 24.7407 39.5222C21.0451 46.1245 15.4661 49.6993 7.8546 50.0049C6.89517 50.0404 5.93573 50.0049 4.73466 50.0049Z" fill="#E84538"/>
<path d="M32.0892 69.62C28.9622 66.4858 26.0484 63.5577 23.1274 60.6297C22.8716 60.3738 22.6086 60.0967 22.2959 59.919C21.7842 59.6276 21.2441 59.6987 20.8319 60.1251C20.3912 60.5728 20.2775 61.113 20.6471 61.6673C20.8106 61.916 21.0309 62.1222 21.2441 62.3354C23.9802 65.0786 26.7164 67.8148 29.4526 70.551C29.68 70.7784 29.8932 71.02 30.1419 71.2901C21.2441 72.2993 12.7584 67.5092 9.40391 58.9453C8.70743 57.1686 8.28812 55.335 8.1602 53.4233C8.11756 52.8192 8.18862 52.5633 8.8851 52.5136C12.6731 52.2648 16.191 51.1419 19.3678 49.0383C19.7871 48.7611 20.107 48.8677 20.4623 49.0312C23.17 50.2607 25.4016 52.08 27.4768 54.2192C31.6273 58.5189 32.0821 63.8278 32.0892 69.62Z" fill="#E84538"/>
</g>
</svg> -->

<svg width="75" height="75" viewBox="0 0 75 75" fill="none" xmlns="http://www.w3.org/2000/svg">
<mask id="mask0_3740_202" style="mask-type:alpha" maskUnits="userSpaceOnUse" x="0" y="0" width="75" height="75">
<rect width="75" height="75" fill="#D9D9D9"/>
</mask>
<g mask="url(#mask0_3740_202)">
<path d="M57.4824 64.4106C54.4122 64.4106 51.3349 64.4106 48.2647 64.4106C46.957 64.4106 46.5093 64.8442 46.495 66.1305C46.4808 67.2961 46.495 68.4687 46.495 69.6342C46.495 70.0109 46.4808 70.3947 46.0828 70.5723C45.6706 70.7571 45.3224 70.6221 44.9955 70.3094C42.0319 67.4666 39.0541 64.638 36.1047 61.781C35.2803 60.978 35.2803 60.0257 36.1047 59.2226C39.2673 56.1524 42.4583 53.1177 45.6422 50.0617C45.9265 49.7917 46.225 49.6211 46.6301 49.7561C47.0991 49.9196 47.1702 50.3176 47.1773 50.7227C47.1915 51.9593 47.1631 53.1959 47.1915 54.4325C47.2128 55.5056 47.6464 55.9605 48.7195 55.9676C52.2232 55.9889 55.7341 56.0102 59.2378 55.9605C61.4765 55.9321 62.5923 54.1838 61.7323 52.1156C59.2378 46.1387 56.729 40.1689 54.1847 34.2133C53.8365 33.396 53.936 33.2183 54.8457 33.1046C57.5179 32.7634 60.1759 32.2944 62.8339 31.8395C63.3172 31.7543 63.5375 31.8182 63.7222 32.3086C66.7072 40.1262 69.7845 47.9154 72.6841 55.7615C74.269 60.0541 71.0993 64.3609 66.5011 64.3964C63.4948 64.432 60.4886 64.4106 57.4824 64.4106Z" fill="#989898"/>
<path d="M52.0029 28.3357C49.6647 28.3357 47.3266 28.3428 44.9884 28.3286C44.5904 28.3286 44.0502 28.5489 43.8584 27.9804C43.6807 27.4544 44.1711 27.2199 44.4624 26.9286C45.3508 26.0189 46.2605 25.1376 47.1418 24.2279C47.9164 23.4248 47.9235 22.8563 47.1489 22.0745C44.9884 19.8927 42.8279 17.7109 40.6318 15.5575C39.3455 14.2995 37.988 14.3208 36.659 15.5717C34.6691 17.455 32.6863 19.3383 30.7176 21.243C30.2344 21.7121 29.7156 21.9253 29.0333 21.9324C25.9631 21.9679 22.8929 22.0532 19.8227 22.1314C19.2755 22.1456 18.7211 22.1669 18.444 21.5699C18.1597 20.9445 18.4937 20.511 18.9272 20.0846C22.9711 16.0549 26.9865 11.9969 31.0445 7.98145C35.0386 4.03 40.909 4.00156 44.9315 7.92459C47.8453 10.7674 50.7023 13.6812 53.5807 16.5524C54.5898 17.5616 55.1015 17.5687 56.0894 16.5879C57.0133 15.6711 57.923 14.7402 58.854 13.8305C59.0743 13.6102 59.2662 13.2477 59.6784 13.4183C60.048 13.5746 60.0622 13.9157 60.0622 14.264C60.0551 18.7414 60.048 23.2116 60.0764 27.689C60.0835 28.3428 59.7921 28.3641 59.3017 28.357C56.8783 28.3357 54.4406 28.3428 52.0029 28.3357C52.0029 28.3428 52.0029 28.3428 52.0029 28.3357Z" fill="#989898"/>
<path d="M4.73466 50.0048C7.8475 46.892 10.7756 43.971 13.7036 41.0429C13.9595 40.7871 14.2295 40.5241 14.4143 40.2114C14.727 39.6855 14.592 39.1738 14.1727 38.7616C13.7534 38.3565 13.2488 38.2073 12.7229 38.5555C12.4457 38.7332 12.1969 38.9677 11.9695 39.2022C9.20493 41.9597 6.44032 44.7172 3.68994 47.4889C3.51226 47.6737 3.41277 47.9367 3.14982 48.0717C2.81579 44.838 3.00056 41.7679 4.10925 38.79C6.96623 31.1146 14.059 26.1539 22.4309 26.0189C23.696 25.9976 24.9681 26.0189 26.2331 26.0189C26.5672 26.0189 26.9154 25.9691 26.9225 26.4879C27.0149 30.9724 27.022 35.4427 24.7407 39.5221C21.0451 46.1244 15.4661 49.6992 7.8546 50.0048C6.89517 50.0403 5.93573 50.0048 4.73466 50.0048Z" fill="#E84538"/>
<path d="M32.0892 69.6199C28.9622 66.4857 26.0484 63.5576 23.1274 60.6296C22.8716 60.3737 22.6086 60.0965 22.2959 59.9189C21.7842 59.6275 21.2441 59.6986 20.8319 60.125C20.3912 60.5727 20.2775 61.1128 20.6471 61.6672C20.8106 61.9159 21.0309 62.122 21.2441 62.3352C23.9802 65.0785 26.7164 67.8147 29.4526 70.5509C29.68 70.7783 29.8932 71.0199 30.1419 71.29C21.2441 72.2991 12.7584 67.5091 9.40391 58.9452C8.70743 57.1685 8.28812 55.3349 8.1602 53.4231C8.11756 52.819 8.18862 52.5632 8.8851 52.5134C12.6731 52.2647 16.191 51.1418 19.3678 49.0381C19.7871 48.761 20.107 48.8676 20.4623 49.0311C23.17 50.2606 25.4016 52.0799 27.4768 54.2191C31.6273 58.5188 32.0821 63.8277 32.0892 69.6199Z" fill="#E84538"/>
</g>
</svg>