<!-- <svg width="75" height="75" viewBox="0 0 75 75" fill="none" xmlns="http://www.w3.org/2000/svg">
<mask id="mask0_804_5" style="mask-type:alpha" maskUnits="userSpaceOnUse" x="0" y="0" width="75" height="75">
<rect width="75" height="75" fill="#D9D9D9"/>
</mask>
<g mask="url(#mask0_804_5)">
<path d="M66.2711 22.7502C62.8526 10.6329 51.5668 1.64968 38.9591 1.03849C33.9843 0.796849 29.2297 1.69232 24.6671 3.74623C12.5 9.21146 5.18696 22.7147 7.39011 35.8767C8.83992 44.5543 13.232 51.3983 20.5166 56.3589C20.8791 56.6005 20.9999 56.8564 20.9999 57.2899C20.9857 62.3429 21.0212 67.4031 20.9715 72.4561C20.9572 73.8704 21.4334 74.8298 22.734 75.3629H23.8924C24.4894 75.242 25.0295 75.0004 25.5696 74.7303C29.2155 72.8967 32.8756 71.0916 36.5072 69.2367C37.0402 68.9666 37.4667 68.9666 37.9997 69.2367C41.6313 71.0916 45.2914 72.8967 48.9373 74.7303C49.4774 75.0004 50.0175 75.242 50.6074 75.3629H51.7729C53.0806 74.8298 53.5497 73.8633 53.5354 72.4561C53.4857 67.4031 53.5212 62.3429 53.4999 57.2899C53.4999 56.8493 53.635 56.6005 53.9903 56.3589C65.0771 48.8682 69.9027 35.6422 66.2711 22.7502ZM37.1966 52.1303C25.6905 52.0734 16.3306 42.6851 16.3449 31.2003C16.3591 19.68 25.8113 10.2562 37.3032 10.306C48.8164 10.3557 58.1763 19.7439 58.1621 31.2359C58.1479 42.7562 48.6885 52.1871 37.1966 52.1303ZM37.2534 14.9539C28.2561 14.9539 20.9999 22.1959 20.9928 31.179C20.9857 40.2191 28.2276 47.4823 37.2534 47.4823C46.2508 47.4823 53.507 40.2333 53.5141 31.2501C53.5212 22.2101 46.2793 14.9539 37.2534 14.9539ZM45.732 28.322C42.3775 31.3922 39.0373 34.4695 35.6757 37.5255C34.7021 38.4068 33.5152 38.421 32.5273 37.5539C31.2197 36.4097 29.9404 35.23 28.6825 34.0289C27.7515 33.1334 27.7302 31.7618 28.5759 30.8308C29.4216 29.8927 30.8217 29.8074 31.8238 30.6673C32.4065 31.1648 33.0106 31.6623 33.5223 32.238C33.97 32.7426 34.233 32.6217 34.6594 32.2237C37.2819 29.7861 39.9257 27.3768 42.5623 24.9605C43.3299 24.264 44.1898 24.0508 45.1635 24.4701C45.995 24.8396 46.5564 25.7067 46.5351 26.6519C46.4783 27.2702 46.2437 27.8601 45.732 28.322Z" fill="#1C1C1C"/>
<circle cx="37.0112" cy="30.9746" r="12.0818" fill="#E84538"/>
<path d="M37.2534 14.9541C28.2561 14.9541 20.9999 22.1961 20.9928 31.1793C20.9857 40.2193 28.2276 47.4826 37.2534 47.4826C46.2508 47.4826 53.507 40.2335 53.5141 31.2503C53.5212 22.2103 46.2793 14.9541 37.2534 14.9541ZM45.732 28.3222C42.3775 31.3924 39.0373 34.4698 35.6757 37.5257C34.7021 38.407 33.5152 38.4212 32.5273 37.5542C31.2197 36.4099 29.9404 35.2302 28.6825 34.0291C27.7515 33.1337 27.7302 31.762 28.5759 30.831C29.4216 29.8929 30.8217 29.8076 31.8238 30.6675C32.4065 31.165 33.0106 31.6625 33.5223 32.2382C33.97 32.7428 34.233 32.6219 34.6594 32.2239C37.2819 29.7863 39.9257 27.377 42.5623 24.9607C43.3299 24.2642 44.1898 24.051 45.1635 24.4703C45.995 24.8399 46.5564 25.7069 46.5351 26.6521C46.4783 27.2704 46.2437 27.8603 45.732 28.3222Z" fill="#1C1C1C"/>
</g>
</svg> -->

<svg width="61" height="74" viewBox="0 0 61 74" fill="none" xmlns="http://www.w3.org/2000/svg">
<path d="M59.2711 21.7502C55.8526 9.63289 44.5668 0.649682 31.9591 0.0384852C26.9843 -0.203151 22.2297 0.692322 17.6671 2.74623C5.49999 8.21146 -1.81304 21.7147 0.390107 34.8767C1.83992 43.5543 6.23201 50.3983 13.5166 55.3589C13.8791 55.6005 13.9999 55.8564 13.9999 56.2899C13.9857 61.3429 14.0212 66.4031 13.9715 71.4561C13.9572 72.8704 14.4334 73.8298 15.734 74.3629H16.8924C17.4894 74.242 18.0295 74.0004 18.5696 73.7303C22.2155 71.8967 25.8756 70.0916 29.5072 68.2367C30.0402 67.9666 30.4667 67.9666 30.9997 68.2367C34.6313 70.0916 38.2914 71.8967 41.9373 73.7303C42.4774 74.0004 43.0175 74.242 43.6074 74.3629H44.7729C46.0806 73.8298 46.5497 72.8633 46.5354 71.4561C46.4857 66.4031 46.5212 61.3429 46.4999 56.2899C46.4999 55.8493 46.635 55.6005 46.9903 55.3589C58.0771 47.8682 62.9027 34.6422 59.2711 21.7502ZM30.1966 51.1303C18.6905 51.0734 9.33064 41.6851 9.34485 30.2003C9.35907 18.68 18.8113 9.25621 30.3032 9.30596C41.8164 9.35571 51.1763 18.7439 51.1621 30.2359C51.1479 41.7562 41.6885 51.1871 30.1966 51.1303ZM30.2534 13.9539C21.2561 13.9539 13.9999 21.1959 13.9928 30.179C13.9857 39.2191 21.2276 46.4823 30.2534 46.4823C39.2508 46.4823 46.507 39.2333 46.5141 30.2501C46.5212 21.2101 39.2793 13.9539 30.2534 13.9539ZM38.732 27.322C35.3775 30.3922 32.0373 33.4695 28.6757 36.5255C27.7021 37.4068 26.5152 37.421 25.5273 36.5539C24.2197 35.4097 22.9404 34.23 21.6825 33.0289C20.7515 32.1334 20.7302 30.7618 21.5759 29.8308C22.4216 28.8927 23.8217 28.8074 24.8238 29.6673C25.4065 30.1648 26.0106 30.6623 26.5223 31.238C26.97 31.7426 27.233 31.6217 27.6594 31.2237C30.2819 28.7861 32.9257 26.3768 35.5623 23.9605C36.3299 23.264 37.1898 23.0508 38.1635 23.4701C38.995 23.8396 39.5564 24.7067 39.5351 25.6519C39.4783 26.2702 39.2437 26.8601 38.732 27.322Z" fill="#989898"/>
<circle cx="30.0112" cy="29.9747" r="12.0818" fill="#E84538"/>
<path d="M30.2534 13.954C21.2561 13.954 13.9999 21.196 13.9928 30.1791C13.9857 39.2192 21.2276 46.4824 30.2534 46.4824C39.2508 46.4824 46.507 39.2334 46.5141 30.2502C46.5212 21.2102 39.2793 13.954 30.2534 13.954ZM38.732 27.3221C35.3775 30.3923 32.0373 33.4696 28.6757 36.5256C27.7021 37.4069 26.5152 37.4211 25.5273 36.554C24.2197 35.4098 22.9404 34.2301 21.6825 33.029C20.7515 32.1335 20.7302 30.7619 21.5759 29.8309C22.4216 28.8928 23.8217 28.8075 24.8238 29.6674C25.4065 30.1649 26.0106 30.6624 26.5223 31.2381C26.97 31.7426 27.233 31.6218 27.6594 31.2238C30.2819 28.7861 32.9257 26.3769 35.5623 23.9606C36.3299 23.2641 37.1898 23.0509 38.1635 23.4702C38.995 23.8397 39.5564 24.7068 39.5351 25.652C39.4783 26.2703 39.2437 26.8602 38.732 27.3221Z" fill="#989898"/>
</svg>