<!-- <svg width="75" height="75" viewBox="0 0 75 75" fill="none" xmlns="http://www.w3.org/2000/svg">
<mask id="mask0_804_124" style="mask-type:alpha" maskUnits="userSpaceOnUse" x="0" y="0" width="75" height="75">
<rect width="75" height="75" fill="#D9D9D9"/>
</mask>
<g mask="url(#mask0_804_124)">
<path d="M30.5823 72.8896C30.5823 69.6204 30.5823 66.3441 30.5823 62.9399C29.0472 64.1196 27.4197 64.5034 25.6571 63.9988C24.4845 63.6648 23.5535 62.9612 22.8641 61.9449C21.5138 59.9692 21.7341 57.3183 23.3758 55.5416C24.8327 53.9709 27.6613 53.0257 30.4828 55.0796C30.6462 54.909 30.5538 54.6958 30.5538 54.5111C30.5609 51.647 30.5609 48.7758 30.5609 45.9117C30.5609 45.599 30.4899 45.3076 31.0087 45.3147C34.0789 45.3431 37.1491 45.3289 40.2193 45.3289C40.2548 45.3289 40.2903 45.3573 40.3898 45.4C39.3806 46.6508 38.9613 48.0722 39.2243 49.6499C39.4446 50.9505 40.1127 52.0165 41.1574 52.8338C43.0692 54.3334 45.8622 54.2268 47.6744 52.6135C49.2735 51.185 50.3395 48.328 48.2003 45.4213C48.3638 45.2436 48.5841 45.336 48.7689 45.336C51.6543 45.3289 54.5468 45.3431 57.4323 45.3147C57.9866 45.3076 58.1501 45.4426 58.143 46.0183C58.1216 53.5232 58.0932 61.0281 58.1501 68.5402C58.1643 70.658 57.4891 72.1718 55.4139 72.8967C47.1414 72.8896 38.8618 72.8896 30.5823 72.8896Z" fill="#1C1C1C"/>
<path d="M72.8898 30.5749C69.6206 30.5749 66.3443 30.5749 62.9685 30.5749C64.1128 32.0532 64.4894 33.6522 64.0133 35.4005C63.6934 36.5803 62.997 37.5184 61.9949 38.222C59.9481 39.6434 57.219 39.3875 55.4423 37.6392C53.8219 36.0401 53.161 33.2116 55.1509 30.5678C54.8808 30.5678 54.6676 30.5678 54.4544 30.5678C51.5903 30.5678 48.7263 30.5678 45.8622 30.5678C45.6063 30.5678 45.322 30.6602 45.322 30.1983C45.3362 27.0641 45.3291 23.9299 45.3291 20.6892C46.8216 21.805 48.3851 22.274 50.1547 21.7694C51.3132 21.4425 52.2513 20.7958 52.9407 19.8221C54.3692 17.8108 54.1986 15.1884 52.5356 13.369C50.702 11.3648 48.2856 11.2085 45.3291 12.9426C45.3291 12.6867 45.3291 12.4735 45.3291 12.2603C45.3291 9.35358 45.3362 6.43976 45.322 3.53302C45.322 3.12082 45.4073 3 45.8408 3C53.7509 3.01421 61.6609 2.99998 69.578 3.0213C71.0349 3.02841 72.0441 3.80308 72.6411 5.12497C72.7335 5.33107 72.8116 5.53717 72.8969 5.74327C72.8898 14.0157 72.8898 22.2953 72.8898 30.5749Z" fill="#E84538"/>
<path d="M5.74349 72.8895C4.45714 72.4418 3.46928 71.7027 3.10682 70.3026C3.02154 69.9828 3.01443 69.6772 3.01443 69.3574C3.01443 61.5611 3.02153 53.7648 3.00021 45.9614C3.00021 45.407 3.15656 45.3004 3.67537 45.3075C6.51815 45.3359 9.36092 45.3217 12.1966 45.3217C12.4169 45.3217 12.6301 45.3217 12.886 45.3217C11.1448 42.3866 11.3793 39.7996 13.5114 37.9803C15.4018 36.367 18.2091 36.3315 20.0853 37.9021C22.2884 39.7428 22.5514 42.3226 20.8031 45.3217C22.5301 45.3217 24.2286 45.3359 25.9201 45.3146C26.3607 45.3075 26.4958 45.4284 26.4886 45.8761C26.4531 47.0345 26.4531 48.1929 26.4886 49.3514C26.5029 49.7849 26.3181 49.8773 25.9556 49.927C21.4569 50.6022 18.2375 54.042 17.9035 58.5407C17.5623 63.0678 21.0234 67.4385 25.5363 68.0995C26.2825 68.2132 26.5455 68.4193 26.5029 69.2011C26.4247 70.4235 26.4886 71.653 26.4886 72.8825C19.5736 72.8896 12.6585 72.8895 5.74349 72.8895Z" fill="#1C1C1C"/>
<path d="M30.5752 27.6966C33.4535 25.5787 36.3815 26.5169 37.8811 28.2438C39.5299 30.1414 39.5512 32.977 37.9308 34.9315C36.545 36.6016 33.6383 37.7529 30.5752 35.5569C30.5752 37.1915 30.5752 38.7692 30.5752 40.3469C30.5752 41.2495 30.5752 41.2495 29.6868 41.2495C28.6421 41.2495 27.5902 41.2282 26.5455 41.2637C26.1191 41.2779 26.0125 41.1145 25.9557 40.7307C25.4013 36.8716 22.8144 33.9578 19.0832 32.977C14.0302 31.648 8.68579 35.0665 7.7761 40.2119C7.59132 41.2566 7.59133 41.2566 6.50397 41.2566C5.50189 41.2566 4.49981 41.2424 3.50484 41.2637C3.14239 41.2708 2.99313 41.2069 3.00024 40.7947C3.01446 34.1994 3.00024 27.6042 3.02156 21.0019C3.02867 19.2038 4.62063 17.7753 6.56082 17.7682C9.87976 17.754 13.2058 17.7611 16.5248 17.7611C20.9382 17.7611 25.3516 17.7753 29.765 17.7469C30.3975 17.7398 30.6036 17.8535 30.5965 18.5429C30.5467 21.5633 30.5752 24.5909 30.5752 27.6966Z" fill="#1C1C1C"/>
</g>
</svg> -->

<svg width="70" height="70" viewBox="0 0 70 70" fill="none" xmlns="http://www.w3.org/2000/svg">
<path d="M27.5823 69.8895C27.5823 66.6203 27.5823 63.344 27.5823 59.9398C26.0472 61.1195 24.4197 61.5033 22.6571 60.9987C21.4845 60.6647 20.5535 59.9611 19.8641 58.9448C18.5138 56.9691 18.7341 54.3182 20.3758 52.5415C21.8327 50.9708 24.6613 50.0256 27.4828 52.0795C27.6462 51.9089 27.5538 51.6957 27.5538 51.5109C27.5609 48.6468 27.5609 45.7757 27.5609 42.9116C27.5609 42.5989 27.4899 42.3075 28.0087 42.3146C31.0789 42.343 34.1491 42.3288 37.2193 42.3288C37.2548 42.3288 37.2903 42.3572 37.3898 42.3998C36.3806 43.6507 35.9613 45.0721 36.2243 46.6498C36.4446 47.9504 37.1127 49.0164 38.1574 49.8337C40.0692 51.3333 42.8622 51.2267 44.6744 49.6134C46.2735 48.1849 47.3395 45.3279 45.2003 42.4212C45.3638 42.2435 45.5841 42.3359 45.7689 42.3359C48.6543 42.3288 51.5468 42.343 54.4323 42.3146C54.9866 42.3075 55.1501 42.4425 55.143 43.0181C55.1216 50.5231 55.0932 58.028 55.1501 65.54C55.1643 67.6579 54.4891 69.1717 52.4139 69.8966C44.1414 69.8895 35.8618 69.8895 27.5823 69.8895Z" fill="#989898"/>
<path d="M69.8898 27.5749C66.6206 27.5749 63.3443 27.5749 59.9685 27.5749C61.1128 29.0532 61.4894 30.6522 61.0133 32.4005C60.6934 33.5803 59.997 34.5184 58.9949 35.222C56.9481 36.6434 54.219 36.3875 52.4423 34.6392C50.8219 33.0401 50.161 30.2116 52.1509 27.5678C51.8808 27.5678 51.6676 27.5678 51.4544 27.5678C48.5903 27.5678 45.7263 27.5678 42.8622 27.5678C42.6063 27.5678 42.322 27.6602 42.322 27.1983C42.3362 24.0641 42.3291 20.9299 42.3291 17.6892C43.8216 18.805 45.3851 19.274 47.1547 18.7694C48.3132 18.4425 49.2513 17.7958 49.9407 16.8221C51.3692 14.8108 51.1986 12.1884 49.5356 10.369C47.702 8.36484 45.2856 8.20851 42.3291 9.9426C42.3291 9.68675 42.3291 9.47353 42.3291 9.26032C42.3291 6.35358 42.3362 3.43976 42.322 0.53302C42.322 0.120818 42.4073 0 42.8408 0C50.7509 0.0142139 58.6609 -2.25557e-05 66.578 0.0212983C68.0349 0.0284052 69.0441 0.803077 69.6411 2.12497C69.7335 2.33107 69.8116 2.53717 69.8969 2.74327C69.8898 11.0157 69.8898 19.2953 69.8898 27.5749Z" fill="#E84538"/>
<path d="M2.74349 69.8895C1.45714 69.4418 0.469278 68.7027 0.106824 67.3026C0.0215409 66.9828 0.0144305 66.6772 0.0144305 66.3574C0.0144305 58.5611 0.0215344 50.7648 0.000213623 42.9614C0.000213623 42.407 0.156564 42.3004 0.675371 42.3075C3.51815 42.3359 6.36092 42.3217 9.19659 42.3217C9.41691 42.3217 9.63012 42.3217 9.88597 42.3217C8.14477 39.3866 8.37929 36.7996 10.5114 34.9803C12.4018 33.367 15.2091 33.3315 17.0853 34.9021C19.2884 36.7428 19.5514 39.3226 17.8031 42.3217C19.5301 42.3217 21.2286 42.3359 22.9201 42.3146C23.3607 42.3075 23.4958 42.4284 23.4886 42.8761C23.4531 44.0345 23.4531 45.1929 23.4886 46.3514C23.5029 46.7849 23.3181 46.8773 22.9556 46.927C18.4569 47.6022 15.2375 51.042 14.9035 55.5407C14.5623 60.0678 18.0234 64.4385 22.5363 65.0995C23.2825 65.2132 23.5455 65.4193 23.5029 66.2011C23.4247 67.4235 23.4886 68.653 23.4886 69.8825C16.5736 69.8896 9.65854 69.8895 2.74349 69.8895Z" fill="#989898"/>
<path d="M27.5752 24.6965C30.4535 22.5786 33.3815 23.5167 34.8811 25.2437C36.5299 27.1413 36.5512 29.9769 34.9308 31.9313C33.545 33.6015 30.6383 34.7528 27.5752 32.5567C27.5752 34.1913 27.5752 35.7691 27.5752 37.3468C27.5752 38.2494 27.5752 38.2494 26.6868 38.2494C25.6421 38.2494 24.5902 38.2281 23.5455 38.2636C23.1191 38.2778 23.0125 38.1144 22.9557 37.7306C22.4013 33.8715 19.8144 30.9577 16.0832 29.9769C11.0302 28.6479 5.68579 32.0664 4.7761 37.2118C4.59132 38.2565 4.59133 38.2565 3.50397 38.2565C2.50189 38.2565 1.49981 38.2423 0.504839 38.2636C0.142385 38.2707 -0.00686533 38.2068 0.000241611 37.7946C0.0144555 31.1993 0.000240745 24.6041 0.0215616 18.0018C0.0286685 16.2037 1.62063 14.7752 3.56082 14.7681C6.87976 14.7538 10.2058 14.761 13.5248 14.761C17.9382 14.761 22.3516 14.7752 26.765 14.7468C27.3975 14.7397 27.6036 14.8534 27.5965 15.5427C27.5467 18.5632 27.5752 21.5907 27.5752 24.6965Z" fill="#989898"/>
</svg>