<svg width="90" height="90" viewBox="0 0 90 90" fill="none" xmlns="http://www.w3.org/2000/svg">
<mask id="mask0_53_325" style="mask-type:alpha" maskUnits="userSpaceOnUse" x="0" y="0" width="90" height="90">
<rect width="90" height="90" fill="#D9D9D9"/>
</mask>
<g mask="url(#mask0_53_325)">
<path d="M40.5705 88.022C39.6181 87.6009 38.5856 87.6911 37.5831 87.5307C31.2273 86.5082 25.4229 84.1423 20.1598 80.4231C20.0896 80.373 20.0495 80.3028 19.9092 80.1424C21.1122 80.3429 22.2049 80.5233 23.2976 80.7038C24.3903 80.8842 25.483 81.0847 26.6359 81.2852C26.4454 78.1675 26.2649 75.0899 26.0644 71.8318C31.929 75.8718 38.3349 77.6763 45.2922 77.5159C52.3197 77.3555 58.4248 74.6688 64.0588 70.4984C62.5952 69.516 61.1015 68.5035 59.6178 67.511C59.6378 67.1902 59.9085 67.2303 60.0689 67.1702C65.0012 65.3256 69.9434 63.491 74.8757 61.6465C75.3468 61.466 75.5674 61.446 75.6175 62.0675C76.0486 67.7416 76.5097 73.4157 76.9809 79.2502C75.9283 78.5083 74.9659 77.8367 74.0035 77.155C72.8707 76.353 72.8607 76.3329 71.788 77.2452C67.7881 80.6637 63.4373 83.5208 58.505 85.4355C54.9963 86.7889 51.3773 87.641 47.608 87.8716C47.4676 87.8816 47.3172 87.8515 47.2671 88.032C46.7559 88.032 46.2346 88.032 45.7233 88.032C45.3824 87.8916 45.0316 87.8916 44.6907 88.032C44.2296 88.032 43.7785 88.032 43.3173 88.032C42.9765 87.8916 42.6256 87.8916 42.2848 88.032C41.7133 88.0219 41.1419 88.022 40.5705 88.022Z" fill="#272C48"/>
<path d="M0 40.574C0.340846 40.0828 0.260639 39.5014 0.320789 38.96C1.11276 32.5541 3.38842 26.7196 6.89713 21.3262C6.93723 21.2661 7.01743 21.236 7.14776 21.1458C7.04751 23.8023 6.98734 26.3888 6.83697 28.9752C6.78685 29.8073 7.0876 29.8173 7.74924 29.6769C10.0048 29.2058 12.2705 28.7747 14.6163 28.3136C8.23044 40.163 9.07253 51.5312 16.4509 62.5987C17.6037 61.4559 18.7465 60.303 19.9896 59.0599C20.0799 60.3832 20.1801 61.6263 20.2503 62.8594C20.4809 66.5485 20.6914 70.2276 20.942 73.9168C20.9921 74.6085 21.0523 74.9694 20.0798 74.789C15.0073 73.8567 9.92465 73.0246 4.65155 72.1223C5.79439 71.17 6.78685 70.2878 7.82944 69.4858C8.30061 69.1249 8.31064 68.8843 7.98984 68.4031C6.18536 65.7265 4.56132 62.9396 3.26811 59.9822C1.614 56.2229 0.611521 52.2831 0.190475 48.203C0.170426 48.0526 0.250617 47.8421 0.0100194 47.7819C0.0100194 47.4411 0.0100194 47.0902 0.0100194 46.7493C0.120293 46.6391 0.120293 46.5188 0.0100194 46.4085C0.0100194 46.1178 0.0100194 45.8371 0.0100194 45.5464C0.150368 45.2055 0.150368 44.8547 0.0100194 44.5138C0.0100194 43.772 0.0100194 43.0201 0.0100194 42.2782C0.150368 42.0477 0.150368 41.8171 0.0100194 41.5865C-5.50662e-06 41.2657 0 40.9249 0 40.574Z" fill="#272C48"/>
<path d="M26.7166 51.7518C33.333 39.8423 39.8893 28.043 46.4455 16.2437C46.4957 16.2537 46.5458 16.2637 46.5959 16.2637C46.5959 16.5644 46.5959 16.8652 46.5959 17.1559C46.5959 23.2611 46.6059 29.3562 46.5759 35.4614C46.5759 36.1331 46.7363 36.3035 47.4079 36.2934C51.9893 36.2634 56.5707 36.2734 61.3124 36.2734C54.706 48.173 48.1498 59.9722 41.5935 71.7816C41.5434 71.7816 41.4933 71.7816 41.4431 71.7816C41.4431 71.4908 41.4431 71.2001 41.4431 70.9094C41.4431 64.7842 41.4331 58.649 41.4632 52.5238C41.4632 51.8822 41.3128 51.7218 40.6712 51.7318C36.3505 51.7619 32.0197 51.7518 27.699 51.7518C27.4083 51.7518 27.1276 51.7518 26.7166 51.7518Z" fill="#FF875B"/>
<path d="M81.2715 66.4985C80.9206 62.268 80.5898 58.2279 80.259 54.1077C78.5748 54.5287 77.061 55.3909 75.2666 55.7919C76.9808 51.7719 77.6926 47.6917 77.6826 43.5013C77.6625 36.6543 75.2365 30.6194 71.2667 25.1458C70.8857 24.6144 70.5248 23.7222 70.0737 23.6621C69.5023 23.5919 69.0511 24.444 68.58 24.9252C67.7379 25.7773 66.9459 26.6896 66.1339 27.5718C66.0437 27.5216 65.9535 27.4715 65.8632 27.4314C65.4923 25.7874 65.1214 24.1433 64.7505 22.4892C63.9485 18.9303 63.1465 15.3715 62.3144 11.8126C62.1941 11.3114 62.3144 11.2312 62.7756 11.2312C68.6201 11.2412 74.4646 11.2412 80.3091 11.2412C80.3592 11.2412 80.3993 11.2813 80.5597 11.3615C79.447 12.3139 78.3843 13.2362 77.3117 14.1484C76.2791 15.0306 76.2691 15.0206 77.1613 16.0933C80.8905 20.5844 84.0785 25.3864 85.9531 30.9702C87.918 36.8147 88.4193 42.7896 87.7075 48.9047C86.9957 54.9598 84.9907 60.5336 81.7928 65.7065C81.6625 65.907 81.5221 66.1175 81.2715 66.4985Z" fill="#272C48"/>
<path d="M65.0419 6.01819C62.2249 6.01819 59.458 6.01819 56.6912 6.01819C55.6486 6.01819 55.6385 6.01821 55.8591 7.04075C56.3202 9.12593 56.8014 11.2011 57.2826 13.3665C45.8141 8.47431 35.0675 9.70735 24.9323 16.7649C26.3458 17.8476 27.7593 18.9202 29.3132 20.1032C28.1503 20.3438 27.1177 20.5743 26.0852 20.7748C21.7444 21.627 17.4036 22.4791 13.0628 23.3312C12.7119 23.4014 12.341 23.5718 12.3711 22.9001C12.6117 17.5869 12.8222 12.2637 13.0428 6.76005C14.2257 7.75252 15.2984 8.63471 16.341 9.54697C16.762 9.91789 17.0427 9.99809 17.554 9.60712C20.9023 7.00065 24.4812 4.77511 28.3909 3.11098C32.6916 1.27642 37.1727 0.243859 41.8343 0.0433611C49.8742 -0.30751 57.423 1.46689 64.4003 5.51695C64.6209 5.62722 64.8815 5.67734 65.0419 6.01819Z" fill="#272C48"/>
</g>
</svg>
