<svg width="90" height="90" viewBox="0 0 90 90" fill="none" xmlns="http://www.w3.org/2000/svg">
<mask id="mask0_53_326" style="mask-type:alpha" maskUnits="userSpaceOnUse" x="0" y="0" width="90" height="90">
<rect width="90" height="90" fill="#D9D9D9"/>
</mask>
<g mask="url(#mask0_53_326)">
<path d="M86.3246 43.2098V70.8637C85.9619 74.4025 83.9033 76.6964 80.8448 78.2158C79.7763 78.7452 78.6293 79 77.4236 79C55.9161 79 34.4085 79.0001 12.9108 78.9903C9.31316 78.9903 5.50964 76.216 4.3627 72.8242C4.13724 72.1871 4.19606 71.5009 4 70.8637V43.2098C4.28428 42.9941 4.56857 43.1411 4.84305 43.2293C5.46063 43.4156 6.0684 43.6312 6.67618 43.8273C18.1946 47.67 29.7326 51.4245 41.2411 55.2967C42.2214 55.63 43.1821 56.0515 44.2408 56.1692C45.7407 56.3358 47.1621 56.0025 48.5737 55.5319C60.7195 51.4736 72.8652 47.425 85.0208 43.3764C85.4325 43.249 85.8442 42.9353 86.3246 43.2098Z" fill="#272C48"/>
<path d="M85.9619 26.4566C84.7659 22.9864 81.031 20.3004 77.3353 20.2906C74.316 20.2808 71.287 20.2906 68.2579 20.2906C65.5327 20.2906 62.7977 20.3004 60.0725 20.2906C59.1902 20.2808 59.102 20.1827 59.0824 19.3201C59.0628 18.5162 59.0824 17.7124 59.0824 16.9086C59.0726 13.1051 55.9847 10.0074 52.1909 10.0074C47.5052 9.99755 42.8194 9.99755 38.1336 10.0074C34.3497 10.0074 31.2618 13.1051 31.2422 16.8988C31.2422 17.5948 31.252 18.2908 31.2422 18.9868C31.2422 20.271 31.2226 20.2906 29.9482 20.2906H13.0775C12.5089 20.2906 11.9501 20.2906 11.4012 20.4474C7.31336 21.5943 4.59798 24.0255 4 28.4172V37.7397C4.17645 38.0926 4.52935 38.1808 4.85285 38.2887C5.97037 38.671 7.0879 39.0337 8.20543 39.416C20.0963 43.3763 31.997 47.3367 43.8781 51.3167C44.7016 51.5912 45.4662 51.6402 46.3092 51.3755C48.6619 50.6403 50.9852 49.8365 53.3281 49.062C63.9054 45.5428 74.4729 42.0138 85.0404 38.4847C85.5109 38.3279 86.0501 38.2593 86.3246 37.7397V28.5838C86.1383 27.8878 86.1972 27.1526 85.9619 26.4566ZM38.3101 17.6242C38.3003 17.2223 38.4179 17.0654 38.859 17.0654C43.0547 17.085 47.2601 17.085 51.4655 17.0654C51.8969 17.0654 52.0439 17.2125 52.0047 17.6242C51.9361 18.5555 52.387 19.722 51.8184 20.3298C51.3577 20.8297 50.1912 20.4572 49.3383 20.467C47.9463 20.4768 46.5543 20.467 45.1623 20.467C43.1037 20.467 41.0353 20.4474 38.9767 20.4769C38.4375 20.4867 38.2807 20.32 38.3101 19.8004C38.3493 19.075 38.3395 18.3496 38.3101 17.6242Z" fill="#FF875B"/>
</g>
</svg>
