<svg width="77" height="77" viewBox="0 0 77 77" fill="none" xmlns="http://www.w3.org/2000/svg">
<path d="M50.8816 17.745C48.3016 16.765 45.7115 16.955 43.1415 16.975C38.2115 17.005 33.2715 16.805 28.3415 17.075C22.7015 17.375 17.3415 22.675 17.1115 28.325C16.8415 34.845 16.9315 41.375 17.0915 47.895C17.1115 48.895 17.4815 49.825 17.7315 50.905C14.0115 50.735 10.3215 51.265 6.69154 50.655C2.81154 50.005 0.021547 46.475 0.011547 42.535C0.00154701 31.145 -0.00845299 19.745 0.011547 8.355C0.021547 3.775 3.77154 0.015 8.35154 0.015C19.7415 -0.005 31.1416 -0.005 42.5316 0.015C47.1216 0.025 50.8516 3.765 50.8816 8.355C50.8916 11.425 50.8816 14.535 50.8816 17.745Z" fill="#272C48"/>
<path d="M58.5815 25.385C62.3515 25.575 66.0415 25.035 69.6815 25.645C73.4916 26.285 76.3116 29.825 76.3216 33.705C76.3416 45.135 76.3416 56.555 76.3216 67.985C76.3116 72.515 72.5615 76.285 68.0515 76.295C56.6215 76.315 45.2015 76.315 33.7715 76.295C29.2515 76.285 25.4915 72.525 25.4615 68.025C25.4415 65.115 25.4615 62.195 25.4515 59.285C25.4515 58.725 25.5016 58.515 26.1516 58.755C27.2716 59.175 28.4716 59.305 29.6616 59.305C35.7516 59.295 41.8516 59.495 47.9416 59.215C53.6516 58.955 59.0115 53.635 59.2415 47.935C59.5015 41.445 59.4215 34.955 59.2615 28.465C59.2215 27.465 58.8815 26.525 58.5815 25.385Z" fill="#272C48"/>
<path d="M38.1616 50.865C35.3516 50.865 32.5316 50.875 29.7216 50.865C27.2716 50.855 25.4516 49.055 25.4516 46.615C25.4416 40.955 25.4416 35.285 25.4516 29.625C25.4616 27.245 27.2816 25.435 29.6716 25.425C35.3316 25.415 40.9916 25.415 46.6616 25.425C49.0516 25.425 50.8816 27.245 50.8816 29.615C50.8916 35.315 50.9016 41.005 50.8816 46.705C50.8716 49.015 49.0316 50.845 46.7116 50.855C43.8616 50.875 41.0116 50.865 38.1616 50.865Z" fill="#FF875B"/>
</svg>
