<svg width="90" height="90" viewBox="0 0 90 90" fill="none" xmlns="http://www.w3.org/2000/svg">
<mask id="mask0_53_324" style="mask-type:alpha" maskUnits="userSpaceOnUse" x="0" y="0" width="90" height="90">
<rect width="90" height="90" fill="#D9D9D9"/>
</mask>
<g mask="url(#mask0_53_324)">
<path d="M57.8816 24.745C55.3016 23.765 52.7115 23.955 50.1415 23.975C45.2115 24.005 40.2715 23.805 35.3415 24.075C29.7015 24.375 24.3415 29.675 24.1115 35.325C23.8415 41.845 23.9315 48.375 24.0915 54.895C24.1115 55.895 24.4815 56.825 24.7315 57.905C21.0115 57.735 17.3215 58.265 13.6915 57.655C9.81154 57.005 7.02155 53.475 7.01155 49.535C7.00155 38.145 6.99155 26.745 7.01155 15.355C7.02155 10.775 10.7715 7.015 15.3515 7.015C26.7415 6.995 38.1416 6.995 49.5316 7.015C54.1216 7.025 57.8516 10.765 57.8816 15.355C57.8916 18.425 57.8816 21.535 57.8816 24.745Z" fill="#272C48"/>
<path d="M65.5815 32.385C69.3515 32.575 73.0415 32.035 76.6815 32.645C80.4916 33.285 83.3116 36.825 83.3216 40.705C83.3416 52.135 83.3416 63.555 83.3216 74.985C83.3116 79.515 79.5615 83.285 75.0515 83.295C63.6215 83.315 52.2015 83.315 40.7715 83.295C36.2515 83.285 32.4915 79.525 32.4615 75.025C32.4415 72.115 32.4615 69.195 32.4515 66.285C32.4515 65.725 32.5016 65.515 33.1516 65.755C34.2716 66.175 35.4716 66.305 36.6616 66.305C42.7516 66.295 48.8516 66.495 54.9416 66.215C60.6516 65.955 66.0115 60.635 66.2415 54.935C66.5015 48.445 66.4215 41.955 66.2615 35.465C66.2215 34.465 65.8815 33.525 65.5815 32.385Z" fill="#272C48"/>
<path d="M45.1616 57.865C42.3516 57.865 39.5316 57.875 36.7216 57.865C34.2716 57.855 32.4516 56.055 32.4516 53.615C32.4416 47.955 32.4416 42.285 32.4516 36.625C32.4616 34.245 34.2816 32.435 36.6716 32.425C42.3316 32.415 47.9916 32.415 53.6616 32.425C56.0516 32.425 57.8816 34.245 57.8816 36.615C57.8916 42.315 57.9016 48.005 57.8816 53.705C57.8716 56.015 56.0316 57.845 53.7116 57.855C50.8616 57.875 48.0116 57.865 45.1616 57.865Z" fill="#FF875B"/>
</g>
</svg>
